<svg width="32" height="32" viewBox="0 0 32 32" fill="none" xmlns="http://www.w3.org/2000/svg">
<path d="M16.2185 15.9507C11.7865 15.9507 8.18445 19.7001 8.18445 24.3272C8.18444 24.3379 8.18445 24.3486 8.18448 24.3593C8.18695 25.3175 9.03614 25.9995 9.99432 25.9995H22.4414C23.4013 25.9995 24.2505 25.3153 24.255 24.3554C24.255 24.346 24.255 24.3366 24.255 24.3272C24.255 19.7002 20.6563 15.9507 16.2183 15.9507H16.2185Z" fill="#8FABC9"/>
<path d="M20.2012 8.3005C21.4687 10.4986 20.7144 13.3081 18.5161 14.5755C16.3179 15.8432 13.5085 15.0887 12.2406 12.8906C10.9731 10.6923 11.7274 7.88273 13.9257 6.61507C16.1238 5.34757 18.9334 6.10188 20.2012 8.30018" fill="#8FABC9"/>
<path d="M21.1816 12.6875C21.1816 12.6858 21.1836 12.6848 21.185 12.6858C21.9441 13.236 22.8878 13.4687 23.816 13.3341C24.7453 13.1993 25.5854 12.7069 26.1569 11.9616C26.7284 11.2166 26.9863 10.2776 26.8756 9.34493C26.7649 8.41231 26.2941 7.55989 25.5642 6.96943C24.8339 6.37876 23.902 6.09659 22.9669 6.18338C22.2871 6.24631 21.6446 6.50041 21.1105 6.9091C20.7555 7.18064 20.7537 7.68368 20.9646 8.07764C21.7216 9.49125 21.8138 11.1847 21.1857 12.6883C21.1848 12.6905 21.1816 12.6899 21.1816 12.6875Z" fill="#8FABC9"/>
<path d="M23.2913 14.0191C23.2913 14.0191 23.2913 14.0192 23.2912 14.0192C21.9386 14.0217 20.6303 14.4702 19.565 15.2861C19.3501 15.4507 19.4153 15.7768 19.6629 15.8864C20.7179 16.3568 21.6705 17.0293 22.4669 17.8661C23.1968 18.6227 23.7871 19.4974 24.215 20.4493C24.5892 21.2818 25.3652 21.911 26.2779 21.911H28.128C28.8995 21.911 29.5845 21.3646 29.5906 20.5932C29.5906 16.9679 26.769 14.0191 23.2914 14.019C23.2914 14.019 23.2914 14.0191 23.2913 14.0191Z" fill="#8FABC9"/>
<path d="M12.7712 15.8923C13.0643 15.7617 13.1409 15.3678 12.8807 15.18C11.842 14.4306 10.5892 14.021 9.29655 14.019C5.82191 14.019 2.99994 16.9678 2.99994 20.5932C3.00102 21.363 3.68303 21.911 4.45281 21.911H6.15372C7.06612 21.911 7.84208 21.2822 8.21596 20.45C8.64402 19.497 9.23432 18.6213 9.9641 17.8632C10.7626 17.0297 11.716 16.3603 12.771 15.8924L12.7712 15.8923Z" fill="#8FABC9"/>
<path d="M9.2935 13.3715C9.29635 13.3686 9.30024 13.367 9.30428 13.367C9.53594 13.3679 9.76601 13.3463 9.99142 13.3032C10.7911 13.1501 11.0199 12.2309 10.8964 11.4262C10.8225 10.9445 10.8141 10.4528 10.8732 9.9647C10.9213 9.56808 11.0131 9.17983 11.146 8.80672C11.4727 7.88987 11.4752 6.74328 10.5638 6.40165C9.98051 6.183 9.34151 6.11586 8.7081 6.22129C7.50962 6.42101 6.49231 7.21121 6.003 8.32333C5.51351 9.43544 5.61779 10.7195 6.2802 11.738C6.9417 12.7548 8.0702 13.3703 9.28276 13.3759C9.28678 13.3759 9.29066 13.3743 9.2935 13.3715Z" fill="#8FABC9"/>
</svg>
