<svg width="24" height="24" viewBox="0 0 24 24" fill="none" xmlns="http://www.w3.org/2000/svg">
<path d="M3.83629 20.1311C3.87131 20.9035 4.22317 21.6333 4.81832 22.1679C5.41348 22.7026 6.20586 23.0007 7.02984 23H16.7702C17.5941 23.0007 18.3865 22.7026 18.9817 22.1679C19.5768 21.6333 19.9287 20.9035 19.9637 20.1311L20.5904 6.58427H3.20956L3.83629 20.1311ZM14.2592 9.4794C14.2661 9.28074 14.3568 9.09277 14.5114 8.95686C14.666 8.82095 14.8718 8.74822 15.0836 8.75468C15.2953 8.76114 15.4957 8.84625 15.6405 8.99129C15.7854 9.13633 15.8629 9.32942 15.856 9.52809L15.4927 19.3558C15.4855 19.5499 15.3982 19.7337 15.2492 19.8686C15.1003 20.0035 14.9013 20.0788 14.6944 20.0787C14.5871 20.0787 14.481 20.0585 14.3822 20.0192C14.2835 19.98 14.1942 19.9224 14.1197 19.8501C14.0452 19.7777 13.987 19.692 13.9485 19.5981C13.9101 19.5042 13.8922 19.4039 13.896 19.3034L14.2592 9.4794ZM8.70645 8.7603C8.81164 8.7568 8.91652 8.77285 9.01508 8.80752C9.11363 8.8422 9.2039 8.89481 9.2807 8.96234C9.35749 9.02987 9.4193 9.11098 9.46256 9.201C9.50583 9.29102 9.52969 9.38818 9.53278 9.48689L9.90403 19.3034C9.90779 19.4039 9.88991 19.5042 9.85147 19.5981C9.81303 19.692 9.75482 19.7777 9.6803 19.8501C9.60579 19.9224 9.5165 19.98 9.41777 20.0192C9.31904 20.0585 9.21288 20.0787 9.10565 20.0787C8.89865 20.0788 8.6997 20.0035 8.55075 19.8686C8.40181 19.7337 8.3145 19.5499 8.30726 19.3558L7.95597 9.52809C7.95042 9.33376 8.02561 9.14502 8.16565 9.00175C8.3057 8.85847 8.49962 8.77189 8.70645 8.7603ZM21.0016 3.58801H15.6804V1.74906C15.6804 1.5504 15.5962 1.35987 15.4465 1.2194C15.2968 1.07892 15.0937 1 14.882 1H8.91803C8.70628 1 8.50321 1.07892 8.35348 1.2194C8.20375 1.35987 8.11964 1.5504 8.11964 1.74906V3.58801H2.79839C2.58664 3.58801 2.38357 3.66693 2.23384 3.80741C2.08412 3.94789 2 4.13841 2 4.33708C2 4.53574 2.08412 4.72627 2.23384 4.86675C2.38357 5.00722 2.58664 5.08614 2.79839 5.08614H21.0016C21.2134 5.08614 21.4164 5.00722 21.5662 4.86675C21.7159 4.72627 21.8 4.53574 21.8 4.33708C21.8 4.13841 21.7159 3.94789 21.5662 3.80741C21.4164 3.66693 21.2134 3.58801 21.0016 3.58801ZM9.71641 2.49813H14.0836V3.58801H9.71641V2.49813Z" fill="#EC3535"/>
</svg>
