<svg width="32" height="32" viewBox="0 0 32 32" fill="none" xmlns="http://www.w3.org/2000/svg">
<path d="M16.4286 7.42857C16.4286 6.63935 17.0679 6 17.8571 6H26.4286C27.2178 6 27.8571 6.63935 27.8571 7.42857C27.8571 8.2178 27.2178 8.85714 26.4286 8.85714H17.8571C17.0679 8.85714 16.4286 8.2178 16.4286 7.42857ZM26.4286 11.7143H17.8571C17.0679 11.7143 16.4286 12.3536 16.4286 13.1429C16.4286 13.9321 17.0679 14.5714 17.8571 14.5714H26.4286C27.2178 14.5714 27.8571 13.9321 27.8571 13.1429C27.8571 12.3536 27.2178 11.7143 26.4286 11.7143ZM13.5714 7.42857C13.5714 6.64 12.9321 6 12.1429 6H6.42857C5.63935 6 5 6.64 5 7.42857V13.1429C5 13.9314 5.63935 14.5714 6.42857 14.5714H12.1429C12.9321 14.5714 13.5714 13.9314 13.5714 13.1429V7.42857ZM26.4286 17.4286H17.8571C17.0679 17.4286 16.4286 18.0679 16.4286 18.8571C16.4286 19.6464 17.0679 20.2857 17.8571 20.2857H26.4286C27.2178 20.2857 27.8571 19.6464 27.8571 18.8571C27.8571 18.0679 27.2178 17.4286 26.4286 17.4286ZM26.4286 23.1429H17.8571C17.0679 23.1429 16.4286 23.7822 16.4286 24.5714C16.4286 25.3607 17.0679 26 17.8571 26H26.4286C27.2178 26 27.8571 25.3607 27.8571 24.5714C27.8571 23.7822 27.2178 23.1429 26.4286 23.1429ZM13.5714 18.8571C13.5714 18.0686 12.9321 17.4286 12.1429 17.4286H6.42857C5.63935 17.4286 5 18.0686 5 18.8571V24.5714C5 25.3607 5.63935 26 6.42857 26H12.1429C12.9321 26 13.5714 25.3607 13.5714 24.5714V18.8571Z" fill="#8FABC9"/>
</svg>
