<svg width="10" height="8" viewBox="0 0 10 8" fill="none" xmlns="http://www.w3.org/2000/svg">
<path d="M4.0575 0.295372C4.00917 0.340575 3.8025 0.511251 3.6325 0.670238C2.56333 1.60234 0.813333 4.0339 0.279167 5.30658C0.193333 5.49985 0.0116667 5.9885 0 6.24959C0 6.49976 0.06 6.73824 0.181667 6.96581C0.351667 7.24949 0.619167 7.47706 0.935 7.60175C1.15417 7.68203 1.81 7.80672 1.82167 7.80672C2.53917 7.93142 3.705 8 4.99333 8C6.22083 8 7.33917 7.93142 8.0675 7.82932C8.07917 7.81763 8.89417 7.69294 9.17333 7.55655C9.68333 7.30638 10 6.81773 10 6.29479V6.24959C9.9875 5.90901 9.67083 5.19279 9.65917 5.19279C9.12417 3.9887 7.46 1.61325 6.35417 0.658549C6.35417 0.658549 6.07 0.389673 5.8925 0.272771C5.6375 0.090404 5.32167 0 5.00583 0C4.65333 0 4.325 0.102095 4.0575 0.295372Z" fill="#407EC9"/>
</svg>
