<svg width="16" height="16" viewBox="0 0 16 16" fill="none" xmlns="http://www.w3.org/2000/svg">
<path d="M16.0005 2.44575C16.0007 2.62303 15.9324 2.7931 15.8104 2.91849C15.6885 3.04378 15.5229 3.1141 15.3505 3.11371H6.39522C6.20599 3.80092 5.73363 4.36862 5.1023 4.66746C4.47109 4.96628 3.74423 4.96628 3.11289 4.66746C2.48169 4.36863 2.00933 3.80092 1.8201 3.11371H0.650009C0.417845 3.11371 0.203276 2.98636 0.0871086 2.7798C-0.0290362 2.5731 -0.0290362 2.31839 0.0871086 2.11181C0.203254 1.90511 0.417835 1.77777 0.650009 1.77777H1.8201C2.00933 1.09056 2.48169 0.522856 3.11289 0.224025C3.74423 -0.0746749 4.47109 -0.0746749 5.1023 0.224025C5.73363 0.522853 6.20598 1.09056 6.39522 1.77777H15.3505C15.523 1.77751 15.6885 1.8477 15.8104 1.97312C15.9324 2.09841 16.0007 2.26846 16.0005 2.44576V2.44575Z" fill="white"/>
<path d="M16.0005 7.99956C16.0007 8.17684 15.9324 8.34691 15.8104 8.4723C15.6884 8.59758 15.5228 8.6679 15.3504 8.66752H13.7454C13.5569 9.35459 13.0852 9.9223 12.4543 10.2213C11.8235 10.5201 11.097 10.5201 10.4662 10.2213C9.83536 9.92231 9.36362 9.35459 9.17516 8.66752H0.650009C0.417845 8.66752 0.203276 8.54017 0.0871086 8.33347C-0.0290362 8.1269 -0.0290362 7.8722 0.0871086 7.66562C0.203254 7.45892 0.417835 7.33158 0.650009 7.33158H9.17516C9.36363 6.6445 9.83536 6.0768 10.4662 5.77783C11.097 5.479 11.8235 5.479 12.4543 5.77783C13.0852 6.07679 13.5569 6.6445 13.7454 7.33158H15.3504C15.5229 7.33119 15.6884 7.40151 15.8104 7.5268C15.9324 7.65221 16.0007 7.82227 16.0005 7.99954V7.99956Z" fill="white"/>
<path d="M16.0005 13.5542C16.0007 13.7315 15.9324 13.9016 15.8104 14.0269C15.6885 14.1523 15.5229 14.2225 15.3505 14.2222H6.39522C6.20599 14.9094 5.73363 15.4771 5.1023 15.776C4.47109 16.0746 3.74423 16.0746 3.11289 15.776C2.48169 15.4771 2.00933 14.9094 1.8201 14.2222H0.650009C0.417845 14.2222 0.203276 14.0949 0.0871086 13.8882C-0.0290362 13.6816 -0.0290362 13.4269 0.0871086 13.2202C0.203254 13.0136 0.417835 12.8863 0.650009 12.8863H1.8201C2.00933 12.1991 2.48169 11.6314 3.11289 11.3325C3.74423 11.0337 4.47109 11.0337 5.1023 11.3325C5.73363 11.6313 6.20598 12.1991 6.39522 12.8863H15.3505C15.523 12.8859 15.6885 12.9562 15.8104 13.0815C15.9324 13.2069 16.0007 13.377 16.0005 13.5542V13.5542Z" fill="white"/>
</svg>
