<svg width="32" height="32" viewBox="0 0 32 32" fill="none" xmlns="http://www.w3.org/2000/svg">
<path d="M16 6C13.3479 6 10.8041 7.05363 8.92894 8.92894C7.05363 10.8044 6 13.3479 6 16C6 18.6521 7.05363 21.1959 8.92894 23.0711C10.8044 24.9464 13.3479 26 16 26C18.6521 26 21.1959 24.9464 23.0711 23.0711C24.9464 21.1956 26 18.6521 26 16C25.9968 13.3488 24.9423 10.8069 23.0676 8.93245C21.1929 7.05776 18.6509 6.00319 16 6ZM16 22.3637C15.7589 22.3637 15.5276 22.268 15.3571 22.0975C15.1867 21.927 15.091 21.6957 15.091 21.4546C15.091 21.2135 15.1867 20.9822 15.3571 20.8118C15.5276 20.6413 15.7589 20.5456 16 20.5456C16.2411 20.5456 16.4724 20.6413 16.6429 20.8118C16.8133 20.9822 16.909 21.2135 16.909 21.4546C16.909 21.6957 16.8133 21.927 16.6429 22.0975C16.4724 22.268 16.2411 22.3637 16 22.3637ZM18.1274 16.2218C17.3964 16.7043 16.9429 17.5095 16.909 18.3847V18.7274C16.909 19.0522 16.7358 19.3523 16.4546 19.5147C16.1733 19.6771 15.8267 19.6771 15.5454 19.5147C15.2641 19.3523 15.091 19.0522 15.091 18.7274V18.3847C15.1202 16.9247 15.8551 15.5692 17.0627 14.7483C17.4504 14.4697 17.7129 14.0496 17.7936 13.5789C17.8742 13.1083 17.7665 12.6248 17.4938 12.233C17.2209 11.8411 16.8048 11.5724 16.3354 11.4846C15.8035 11.3847 15.2549 11.527 14.8385 11.8728C14.4222 12.2184 14.1815 12.7316 14.1818 13.2728C14.1818 13.5976 14.0086 13.8977 13.7273 14.0601C13.4461 14.2225 13.0994 14.2225 12.8181 14.0601C12.5369 13.8977 12.3637 13.5976 12.3637 13.2728C12.3636 12.0064 13.0224 10.8314 14.1027 10.1705C15.1829 9.50988 16.529 9.45873 17.6565 10.0356C18.7838 10.6124 19.5298 11.734 19.6259 12.9968C19.7221 14.2593 19.1544 15.4812 18.1274 16.2218H18.1274Z" fill="#8FABC9"/>
</svg>
