<svg width="32" height="32" viewBox="0 0 32 32" fill="none" xmlns="http://www.w3.org/2000/svg">
<path d="M27.6447 14.7487C27.6447 14.7488 27.6446 14.7488 27.6446 14.7488L17.1944 4.29858C16.9992 4.1073 16.7365 4 16.4629 4C16.1895 4 15.9268 4.1073 15.7314 4.29858L5.28108 14.7489C5.10054 14.9422 5 15.1967 5 15.4613C4.99977 15.7258 5.09984 15.9805 5.27992 16.1742C5.46023 16.3678 5.70702 16.4858 5.97083 16.5047C6.67502 16.5047 7.24588 17.0756 7.24588 17.7797V26.955C7.24588 27.2321 7.35599 27.4978 7.55193 27.694C7.74787 27.8899 8.01356 28 8.29091 28H11.4764C12.9492 28 14.1431 26.8061 14.1431 25.3333V20.9876C14.1431 20.7104 14.2532 20.4445 14.4491 20.2486C14.6451 20.0526 14.9107 19.9425 15.1881 19.9425H17.7172H17.7169C17.9941 19.9425 18.26 20.0526 18.4559 20.2486C18.6519 20.4445 18.762 20.7104 18.762 20.9876V25.3226C18.762 26.7953 19.9559 27.9893 21.4286 27.9893H24.6141C24.8912 27.9893 25.1572 27.8791 25.3531 27.6832C25.5491 27.4873 25.6592 27.2213 25.6592 26.9442V17.8212C25.6592 17.0882 26.2534 16.4939 26.9865 16.4939C27.244 16.4662 27.4819 16.3437 27.6543 16.1506C27.8267 15.9572 27.9212 15.7067 27.9195 15.4477C27.9177 15.1888 27.82 14.9398 27.6448 14.7487C27.6448 14.7487 27.6447 14.7487 27.6447 14.7487Z" fill="#8FABC9"/>
</svg>
