<svg width="20" height="20" viewBox="0 0 20 20" fill="none" xmlns="http://www.w3.org/2000/svg">
<path d="M2.92876 2.92876C-0.976253 6.83377 -0.976253 13.1662 2.92876 17.0712C6.83377 20.9763 13.1662 20.9763 17.0712 17.0712C20.9763 13.1662 20.9763 6.83377 17.0712 2.92876C13.1662 -0.976253 6.83377 -0.976253 2.92876 2.92876ZM10.4011 4.19533C11.2453 4.19533 11.9208 4.8919 11.9208 5.73619C11.9208 6.58044 11.2243 7.27705 10.4011 7.27705C9.55681 7.27705 8.8602 6.58048 8.8602 5.715C8.8602 4.87086 9.55665 4.19536 10.4011 4.19536V4.19533ZM12.5752 14.5172C12.5329 14.6439 12.4486 14.7917 12.3641 14.876C11.8153 15.446 11.1398 15.7836 10.3376 15.7836C9.95772 15.7836 9.59873 15.7836 9.21886 15.7203C8.6068 15.6359 7.82568 14.8761 7.93126 14.0739C8.01563 13.5251 8.10015 12.9762 8.18452 12.4274C8.3534 11.4776 8.52228 10.5066 8.69115 9.55672C8.69115 9.49341 8.7122 9.43009 8.7122 9.36678C8.7122 8.96569 8.58558 8.81801 8.1845 8.77575C8.01562 8.7547 7.84674 8.73349 7.67787 8.69138C7.48793 8.62807 7.38236 8.45919 7.40341 8.31151C7.42447 8.14263 7.53004 8.03706 7.74118 7.99495C7.84675 7.97389 7.97338 7.97389 8.1 7.97389H9.51425H11.013C11.3718 7.97389 11.583 8.14278 11.583 8.5016C11.583 8.79711 11.5407 9.09263 11.4774 9.38814C11.2875 10.4858 11.0763 11.5623 10.8864 12.6599C10.8231 13.0188 10.7385 13.3776 10.6964 13.7364C10.6754 13.9053 10.6964 14.0952 10.7387 14.2641C10.802 14.4963 10.9709 14.623 11.2031 14.6019C11.393 14.5808 11.5829 14.5175 11.773 14.433C11.9208 14.3697 12.0475 14.2641 12.1951 14.2219C12.4485 14.1374 12.6385 14.285 12.5752 14.5172L12.5752 14.5172Z" fill="#AAAAAA"/>
</svg>
