<svg width="32" height="32" viewBox="0 0 32 32" fill="none" xmlns="http://www.w3.org/2000/svg">
<path d="M4 8C4 6.89543 4.89543 6 6 6H25.6366C26.7412 6 27.6366 6.89543 27.6366 8V8.5455C27.6366 9.65007 26.7412 10.5455 25.6366 10.5455H6C4.89543 10.5455 4 9.65007 4 8.5455V8Z" fill="#8FABC9"/>
<path d="M5.81567 23.9997C5.81567 25.1043 6.7111 25.9997 7.81567 25.9997H23.8159C24.9204 25.9997 25.8159 25.1043 25.8159 23.9997V13.4541C25.8159 12.3495 24.9204 11.4541 23.8159 11.4541H7.81567C6.7111 11.4541 5.81567 12.3495 5.81567 13.4541V23.9997ZM12.6339 14.1814C12.6339 13.6793 13.0409 13.2723 13.543 13.2723H18.0885C18.5906 13.2723 18.9976 13.6793 18.9976 14.1814C18.9976 14.6835 18.5906 15.0905 18.0885 15.0905H13.543C13.0409 15.0905 12.6339 14.6835 12.6339 14.1814Z" fill="#8FABC9"/>
</svg>
