<svg width="60" height="60" viewBox="0 0 60 60" fill="none" xmlns="http://www.w3.org/2000/svg">
<path d="M45.1873 3.88672L55.6198 14.7617V56.1167H16.6479V56.2517H55.7529V14.8986L45.1873 3.88672Z" fill="#909090"/>
<path d="M45.0578 3.75H16.5146V56.115H55.6196V14.7619L45.0559 3.75" fill="#F4F4F4"/>
<path d="M16.2283 6.5625H4.24707V19.3631H41.9346V6.5625H16.2283Z" fill="#7A7B7C"/>
<path d="M42.1356 19.1479H4.49121V6.33789H42.1356V19.1479Z" fill="#DD2025"/>
<path d="M16.9721 8.50105H14.5215V17.501H16.449V14.4654L16.8746 14.4898C17.2882 14.4827 17.6979 14.4086 18.0877 14.2704C18.4296 14.1529 18.744 13.9672 19.0121 13.7248C19.2849 13.4938 19.5 13.2023 19.6402 12.8735C19.8283 12.327 19.8955 11.7461 19.8371 11.171C19.8254 10.7602 19.7534 10.3534 19.6234 9.96355C19.505 9.68212 19.3293 9.42842 19.1076 9.2186C18.8858 9.00877 18.6228 8.84741 18.3352 8.7448C18.0866 8.65479 17.8298 8.58948 17.5684 8.5498C17.3704 8.51925 17.1705 8.50296 16.9702 8.50105H16.9721ZM16.6159 12.8023H16.449V10.0273H16.8109C16.9706 10.0158 17.1308 10.0403 17.2798 10.099C17.4288 10.1578 17.5626 10.2492 17.6715 10.3667C17.8971 10.6686 18.0176 11.0361 18.0146 11.4129C18.0146 11.8742 18.0146 12.2923 17.5984 12.5867C17.2985 12.7516 16.9572 12.8259 16.6159 12.8004V12.8023ZM23.499 8.47667C23.2909 8.47667 23.0884 8.49167 22.9459 8.4973L22.4996 8.50855H21.0371V17.5085H22.7584C23.4162 17.5266 24.0711 17.4151 24.6859 17.1804C25.1807 16.9842 25.6189 16.6678 25.9609 16.2598C26.2934 15.8482 26.5321 15.3689 26.6602 14.8554C26.8075 14.2739 26.8794 13.6759 26.874 13.076C26.9104 12.3676 26.8555 11.6574 26.7109 10.9629C26.5736 10.4517 26.3165 9.98059 25.9609 9.58855C25.6818 9.27198 25.3403 9.01662 24.9577 8.83855C24.6292 8.68652 24.2836 8.57446 23.9284 8.5048C23.7871 8.48146 23.644 8.47079 23.5009 8.47292L23.499 8.47667ZM23.1596 15.8548H22.9721V10.1098H22.9965C23.383 10.0653 23.7741 10.1351 24.1215 10.3104C24.3759 10.5135 24.5831 10.7694 24.729 11.0604C24.8864 11.3667 24.9771 11.7028 24.9952 12.0467C25.0121 12.4592 24.9952 12.7967 24.9952 13.076C25.0029 13.3979 24.9822 13.7197 24.9334 14.0379C24.8756 14.3646 24.7687 14.6807 24.6165 14.9754C24.4442 15.2495 24.2113 15.4804 23.9359 15.6504C23.7045 15.8 23.4306 15.8698 23.1559 15.8492L23.1596 15.8548ZM32.6809 8.50855H28.1246V17.5085H30.0521V13.9385H32.4896V12.266H30.0521V10.181H32.6771V8.50855" fill="#464648"/>
<path d="M40.8388 37.9803C40.8388 37.9803 46.8163 36.8965 46.8163 38.9384C46.8163 40.9803 43.1132 40.1497 40.8388 37.9803ZM36.4194 38.1359C35.4697 38.3458 34.5442 38.653 33.6575 39.0528L34.4075 37.3653C35.1575 35.6778 35.9357 33.3772 35.9357 33.3772C36.8306 34.8834 37.8719 36.2977 39.0444 37.5997C38.1602 37.7315 37.2839 37.9118 36.4194 38.1397V38.1359ZM34.0532 25.9484C34.0532 24.169 34.6288 23.6834 35.0769 23.6834C35.525 23.6834 36.0294 23.899 36.0463 25.444C35.9003 26.9976 35.575 28.529 35.0769 30.0078C34.3946 28.7662 34.0416 27.3707 34.0513 25.954L34.0532 25.9484ZM25.3363 45.6659C23.5025 44.569 29.1819 41.1922 30.2113 41.0834C30.2057 41.0853 27.2563 46.8134 25.3363 45.6659ZM48.5619 39.1803C48.5432 38.9928 48.3744 36.9172 44.6807 37.0053C43.1411 36.9805 41.6022 37.089 40.0813 37.3297C38.608 35.8454 37.3394 34.1713 36.3088 32.3515C36.9581 30.4755 37.351 28.5203 37.4769 26.539C37.4225 24.289 36.8844 22.999 35.1594 23.0178C33.4344 23.0365 33.1832 24.5459 33.41 26.7922C33.6323 28.3016 34.0515 29.7754 34.6569 31.1759C34.6569 31.1759 33.86 33.6565 32.8063 36.124C31.7525 38.5915 31.0325 39.8853 31.0325 39.8853C29.2002 40.4818 27.4752 41.368 25.9232 42.5103C24.3782 43.9484 23.75 45.0528 24.5638 46.1572C25.265 47.1097 27.7194 47.3253 29.9132 44.4509C31.0788 42.9663 32.1437 41.4053 33.1007 39.7784C33.1007 39.7784 36.4457 38.8615 37.4863 38.6103C38.5269 38.359 39.785 38.1603 39.785 38.1603C39.785 38.1603 42.8394 41.2334 45.785 41.1247C48.7307 41.0159 48.5882 39.364 48.5694 39.184" fill="#DD2025"/>
<path d="M44.9131 3.89648V14.9084H55.475L44.9131 3.89648Z" fill="#909090"/>
<path d="M45.0586 3.75V14.7619H55.6205L45.0586 3.75Z" fill="#F4F4F4"/>
<path d="M16.8281 8.35847H14.3774V17.3585H16.3124V14.3247L16.7399 14.3491C17.1535 14.342 17.5632 14.2679 17.9531 14.1297C18.2949 14.0121 18.6093 13.8265 18.8774 13.5841C19.1482 13.3525 19.3613 13.0611 19.4999 12.7328C19.688 12.1863 19.7552 11.6054 19.6968 11.0303C19.6851 10.6195 19.6131 10.2127 19.4831 9.82284C19.3647 9.54142 19.189 9.28772 18.9673 9.07789C18.7455 8.86807 18.4825 8.70671 18.1949 8.60409C17.9452 8.51321 17.6871 8.44727 17.4243 8.40722C17.2264 8.37668 17.0265 8.36038 16.8262 8.35847H16.8281ZM16.4718 12.6597H16.3049V9.88472H16.6687C16.8284 9.8732 16.9887 9.89772 17.1376 9.95646C17.2866 10.0152 17.4205 10.1067 17.5293 10.2241C17.7549 10.526 17.8754 10.8935 17.8724 11.2703C17.8724 11.7316 17.8724 12.1497 17.4562 12.4441C17.1563 12.609 16.815 12.6833 16.4737 12.6578L16.4718 12.6597ZM23.3549 8.33409C23.1468 8.33409 22.9443 8.34909 22.8018 8.35472L22.3612 8.36597H20.8987V17.366H22.6199C23.2777 17.384 23.9327 17.2725 24.5474 17.0378C25.0423 16.8416 25.4805 16.5252 25.8224 16.1172C26.155 15.7056 26.3937 15.2263 26.5218 14.7128C26.6691 14.1313 26.741 13.5333 26.7356 12.9335C26.7719 12.225 26.7171 11.5148 26.5724 10.8203C26.4352 10.3091 26.1781 9.83802 25.8224 9.44597C25.5434 9.1294 25.2019 8.87404 24.8193 8.69597C24.4908 8.54394 24.1452 8.43189 23.7899 8.36222C23.6487 8.33888 23.5056 8.32822 23.3624 8.33034L23.3549 8.33409ZM23.0212 15.7122H22.8337V9.96722H22.8581C23.2446 9.92274 23.6357 9.99249 23.9831 10.1678C24.2374 10.371 24.4447 10.6268 24.5906 10.9178C24.748 11.2241 24.8387 11.5602 24.8568 11.9041C24.8737 12.3166 24.8568 12.6541 24.8568 12.9335C24.8644 13.2553 24.8437 13.5772 24.7949 13.8953C24.7371 14.222 24.6303 14.5381 24.4781 14.8328C24.3057 15.1069 24.0729 15.3378 23.7974 15.5078C23.5661 15.6575 23.2922 15.7273 23.0174 15.7066L23.0212 15.7122ZM32.5368 8.36597H27.9806V17.366H29.9081V13.796H32.3456V12.1235H29.9081V10.0385H32.5331V8.36597" fill="white"/>
</svg>
