<svg width="38" height="38" viewBox="0 0 38 38" fill="none" xmlns="http://www.w3.org/2000/svg">
<path d="M33.0616 0.25H26.3652V4.26807H33.0616C33.2391 4.26807 33.4091 4.3386 33.5348 4.46425C33.6604 4.58991 33.731 4.75993 33.731 4.93742V11.6338H37.749V4.93742C37.749 3.69441 37.2553 2.50197 36.3763 1.62283C35.4972 0.74374 34.3047 0.250072 33.0617 0.250072L33.0616 0.25Z" fill="#3D7CCA"/>
<path d="M11.6337 0.25H4.93735C3.69433 0.25 2.5019 0.743727 1.62276 1.62276C0.743667 2.50185 0.25 3.69434 0.25 4.93735V11.6337H4.26807V4.93735C4.26807 4.56788 4.56795 4.26799 4.93744 4.26799H11.6338L11.6337 0.25Z" fill="#3D7CCA"/>
<path d="M4.93744 37.751H11.6338V33.7329H4.93744C4.56796 33.7329 4.26807 33.4331 4.26807 33.0636V26.3672H0.25V33.0636C0.25 34.3066 0.743727 35.499 1.62276 36.3782C2.50185 37.2573 3.69434 37.7509 4.93735 37.7509L4.93744 37.751Z" fill="#3D7CCA"/>
<path d="M33.731 33.0635C33.731 33.241 33.6604 33.411 33.5348 33.5367C33.4091 33.6623 33.2391 33.7329 33.0616 33.7329H26.3652V37.7509H33.0616C34.3046 37.7509 35.4971 37.2572 36.3762 36.3782C37.2553 35.4991 37.749 34.3066 37.749 33.0636V26.3672H33.7309L33.731 33.0635Z" fill="#3D7CCA"/>
<path d="M16.9902 16.9922H21.0083V21.0103H16.9902V16.9922Z" fill="#3D7CCA"/>
<path d="M22.3486 11.6328H26.3667V15.6509H22.3486V11.6328Z" fill="#3D7CCA"/>
<path d="M11.6328 11.6328H15.6509V15.6509H11.6328V11.6328Z" fill="#3D7CCA"/>
<path d="M22.3486 22.3486H26.3667V26.3667H22.3486V22.3486Z" fill="#3D7CCA"/>
<path d="M11.6328 22.3486H15.6509V26.3667H11.6328V22.3486Z" fill="#3D7CCA"/>
</svg>
