<svg width="32" height="32" viewBox="0 0 32 32" fill="none" xmlns="http://www.w3.org/2000/svg">
  <path d="M28.3107 14.9616L21.3839 8.03478L24.0505 5.36823C24.7328 4.68591 25.8032 4.68591 26.4855 5.36823L27.7036 6.58633C28.3859 7.26865 28.3859 8.33902 27.7036 9.02134L27.3107 9.41421L28.3107 10.4142C29.0917 11.1953 29.0917 12.4616 28.3107 13.2427C27.5296 14.0237 26.2633 14.0237 25.4822 13.2427L24.4822 12.2427L23.0893 13.6356L24.0893 14.6356C24.8704 15.4166 24.8704 16.6829 24.0893 17.4639C23.3083 18.245 22.042 18.245 21.261 17.4639L20.261 16.4639L18.8681 17.8568L19.8681 18.8568C20.6491 19.6378 20.6491 20.9041 19.8681 21.6852C19.0871 22.4662 17.8208 22.4662 17.0397 21.6852L16.0397 20.6852L15.6468 21.0781C14.9645 21.7604 13.8942 21.7604 13.2119 21.0781L11.9938 19.86C11.3115 19.1777 11.3115 18.1073 11.9938 17.425L14.6604 14.7585L7.73359 7.83169C7.05239 7.15049 7.05239 6.08013 7.73359 5.39893L9.65716 3.47536C10.3384 2.79416 11.4087 2.79416 12.0899 3.47536L28.3107 19.6962C29.0917 20.4772 29.0917 21.7436 28.3107 22.5246L26.3869 24.4484C25.6059 25.2295 24.3396 25.2295 23.5586 24.4484L20.892 21.7818L14.7573 27.9165C13.4057 29.2681 11.2167 29.2681 9.86511 27.9165L4.08356 22.1349C2.73197 20.7833 2.73197 18.5943 4.08356 17.2427L10.2183 11.108L7.5517 8.44142C6.8705 7.76022 6.8705 6.68985 7.5517 6.00865L9.47527 4.08508C10.1565 3.40388 11.2268 3.40388 11.908 4.08508L13.8681 6.04523L20.7949 12.9721L28.3107 20.4879" fill="#8FABC9"/>
</svg>
