<svg width="32" height="32" viewBox="0 0 32 32" fill="none" xmlns="http://www.w3.org/2000/svg">
<path d="M16.0221 26.9998C16.022 26.9999 16.0221 27 16.0221 27C18.2772 27.0001 20.4673 26.3048 22.3005 25.0236C22.8225 24.6587 22.8454 23.9163 22.395 23.466L15.4664 16.5373C15.3183 16.3897 15.235 16.1891 15.235 15.98V6.18076C15.235 5.54261 14.6919 5.03343 14.0638 5.14639C11.6656 5.57772 9.46559 6.79518 7.82233 8.62401C5.9142 10.7468 4.90499 13.5277 5.00705 16.3799C5.10896 19.2324 6.31443 21.9339 8.36946 23.9148C10.4242 25.8958 13.1677 27.0019 16.022 26.9996C16.0221 26.9996 16.0222 26.9998 16.0221 26.9998Z" fill="#8FABC9"/>
<path d="M16.8094 5.00012C16.8094 5.00007 16.8093 5.0001 16.8093 5.00017V14.0928C16.8093 14.7004 17.3018 15.1928 17.9093 15.1928H25.8193C26.4582 15.1928 26.9677 14.6485 26.8533 14.0199C26.454 11.8238 25.3948 9.7905 23.8033 8.19895C21.9318 6.3274 19.4491 5.19198 16.8095 5.00014C16.8095 5.00014 16.8095 5.00013 16.8094 5.00012Z" fill="#8FABC9"/>
<path d="M20.5774 16.7666C19.5975 16.7666 19.1067 17.9515 19.7996 18.6444L23.5064 22.3512C23.9573 22.8021 24.7007 22.7786 25.065 22.2552C25.9654 20.9616 26.5763 19.4886 26.8555 17.9373C26.9686 17.3094 26.4594 16.7666 25.8215 16.7666H20.5774Z" fill="#8FABC9"/>
</svg>
