<svg width="26" height="26" viewBox="0 0 26 26" fill="none" xmlns="http://www.w3.org/2000/svg">
<path d="M15.9166 15.9165C18.7461 13.087 18.7461 8.49992 15.9166 5.67019C13.0872 2.84071 8.50007 2.8407 5.67034 5.67019L15.9166 15.9165ZM15.9166 15.9165C13.0869 18.746 8.49982 18.746 5.67034 15.9165C2.84085 13.0868 2.84086 8.49968 5.67034 5.67019L15.9166 15.9165ZM18.6635 16.7906C21.6267 12.9119 21.3353 7.34388 17.7891 3.7977C13.9256 -0.0659003 7.66148 -0.0658959 3.7977 3.79769C-0.0658994 7.66114 -0.0658975 13.9255 3.79769 17.7891C7.34393 21.3353 12.9121 21.6267 16.7908 18.6634L22.8456 24.7183C23.3517 25.2244 24.1971 25.2314 24.7144 24.7143L24.7145 24.7143C25.2347 24.1939 25.2334 23.3605 24.7184 22.8455L18.6635 16.7906Z" fill="#3D7CCA" stroke="white" stroke-width="0.2"/>
</svg>
