<svg width="25" height="24" viewBox="0 0 25 24" fill="none" xmlns="http://www.w3.org/2000/svg">
<path fill-rule="evenodd" clip-rule="evenodd" d="M17.5307 15.7992L23.6477 21.9162C24.1235 22.392 24.1251 23.1621 23.6437 23.6436C23.1656 24.1215 22.3835 24.1148 21.9163 23.6475L15.7993 17.5305C11.9573 20.5206 6.39991 20.2499 2.8684 16.7184C-0.956135 12.8938 -0.956135 6.6928 2.8684 2.8684C6.69314 -0.956135 12.894 -0.956135 16.7184 2.8684C20.2499 6.39991 20.5206 11.9571 17.5305 15.7993L17.5307 15.7992ZM14.9873 14.9872C17.8559 12.1187 17.8559 7.46826 14.9873 4.59948C12.1188 1.73094 7.46841 1.73094 4.59963 4.59948C1.73109 7.46802 1.73109 12.1184 4.59963 14.9872C7.46817 17.8557 12.1186 17.8557 14.9873 14.9872Z" fill="#3D7CCA"/>
</svg>
