<svg width="32" height="32" viewBox="0 0 32 32" fill="none" xmlns="http://www.w3.org/2000/svg">
<path fill-rule="evenodd" clip-rule="evenodd" d="M6.2 23.6H4.60131C3.71691 23.6 3 22.8882 3 22.0071V7.59286C3 6.71314 3.71851 6 4.59263 6H17.4075C18.2872 6 19.0001 6.7152 19.0001 7.60377V9C19.0001 9.55229 19.4478 10 20.0001 10H23.4073C23.6242 10 23.9095 10.1366 24.0514 10.3141L28.3487 15.6859C28.4876 15.8594 28.6001 16.173 28.6001 16.398V22.0067C28.6001 22.8866 27.8887 23.6 26.9988 23.6H26.4001C25.8478 23.6 25.4156 23.1415 25.2459 22.6159C24.8308 21.33 23.6242 20.4 22.2001 20.4C20.776 20.4 19.5693 21.33 19.1542 22.6159C18.9846 23.1415 18.5524 23.6 18.0001 23.6H13.6001C13.0478 23.6 12.6156 23.1415 12.4459 22.6159C12.0308 21.33 10.8242 20.4 9.40008 20.4C7.63268 20.4 6.20012 21.8325 6.20008 23.5999C6.20008 23.6 6.20004 23.6 6.2 23.6ZM20 11.6C19.4477 11.6 19 12.0477 19 12.6V15.4C19 15.9523 19.4477 16.4 20 16.4H24.865C25.7128 16.4 26.176 15.4111 25.6332 14.7598L23.2998 11.9598C23.1099 11.7318 22.8284 11.6 22.5316 11.6H20ZM22.2 26C20.8746 26 19.8 24.9254 19.8 23.6C19.8 22.2746 20.8746 21.2 22.2 21.2C23.5254 21.2 24.6 22.2746 24.6 23.6C24.6 24.9254 23.5254 26 22.2 26ZM9.4 26C8.07457 26 7 24.9254 7 23.6C7 22.2746 8.07457 21.2 9.4 21.2C10.7254 21.2 11.8 22.2746 11.8 23.6C11.8 24.9254 10.7254 26 9.4 26Z" fill="#8FABC9"/>
</svg>
