<svg width="20" height="22" viewBox="0 0 20 22" fill="none" xmlns="http://www.w3.org/2000/svg">
<path d="M1.83629 19.1311C1.87131 19.9035 2.22317 20.6333 2.81832 21.1679C3.41348 21.7026 4.20586 22.0007 5.02984 22H14.7702C15.5941 22.0007 16.3865 21.7026 16.9817 21.1679C17.5768 20.6333 17.9287 19.9035 17.9637 19.1311L18.5904 5.58427H1.20956L1.83629 19.1311ZM12.2592 8.4794C12.2661 8.28074 12.3568 8.09277 12.5114 7.95686C12.666 7.82095 12.8718 7.74822 13.0836 7.75468C13.2953 7.76114 13.4957 7.84625 13.6405 7.99129C13.7854 8.13633 13.8629 8.32942 13.856 8.52809L13.4927 18.3558C13.4855 18.5499 13.3982 18.7337 13.2492 18.8686C13.1003 19.0035 12.9013 19.0788 12.6944 19.0787C12.5871 19.0787 12.481 19.0585 12.3822 19.0192C12.2835 18.98 12.1942 18.9224 12.1197 18.8501C12.0452 18.7777 11.987 18.692 11.9485 18.5981C11.9101 18.5042 11.8922 18.4039 11.896 18.3034L12.2592 8.4794ZM6.70645 7.7603C6.81164 7.7568 6.91652 7.77285 7.01508 7.80752C7.11363 7.8422 7.2039 7.89481 7.2807 7.96234C7.35749 8.02987 7.4193 8.11098 7.46256 8.201C7.50583 8.29102 7.52969 8.38818 7.53278 8.48689L7.90403 18.3034C7.90779 18.4039 7.88991 18.5042 7.85147 18.5981C7.81303 18.692 7.75482 18.7777 7.6803 18.8501C7.60579 18.9224 7.5165 18.98 7.41777 19.0192C7.31904 19.0585 7.21288 19.0787 7.10565 19.0787C6.89865 19.0788 6.6997 19.0035 6.55075 18.8686C6.40181 18.7337 6.3145 18.5499 6.30726 18.3558L5.95597 8.52809C5.95042 8.33376 6.02561 8.14502 6.16565 8.00175C6.3057 7.85847 6.49962 7.77189 6.70645 7.7603ZM19.0016 2.58801H13.6804V0.749064C13.6804 0.5504 13.5962 0.359872 13.4465 0.219396C13.2968 0.078919 13.0937 0 12.882 0H6.91803C6.70628 0 6.50321 0.078919 6.35348 0.219396C6.20375 0.359872 6.11964 0.5504 6.11964 0.749064V2.58801H0.798387C0.586642 2.58801 0.383569 2.66693 0.233842 2.80741C0.0841157 2.94789 0 3.13841 0 3.33708C0 3.53574 0.0841157 3.72627 0.233842 3.86675C0.383569 4.00722 0.586642 4.08614 0.798387 4.08614H19.0016C19.2134 4.08614 19.4164 4.00722 19.5662 3.86675C19.7159 3.72627 19.8 3.53574 19.8 3.33708C19.8 3.13841 19.7159 2.94789 19.5662 2.80741C19.4164 2.66693 19.2134 2.58801 19.0016 2.58801ZM7.71641 1.49813H12.0836V2.58801H7.71641V1.49813Z" fill="#EC3535"/>
</svg>
