<svg width="24" height="24" viewBox="0 0 24 24" fill="none" xmlns="http://www.w3.org/2000/svg">
<path d="M12.3445 12.274C9.51247 12.274 7.20752 9.96904 7.20752 7.13699C7.20752 4.30495 9.51247 2 12.3445 2C15.1766 2 17.4815 4.30495 17.4815 7.13699C17.4815 9.96904 15.1766 12.274 12.3445 12.274ZM12.3445 3.34008C10.254 3.34008 8.5476 5.04646 8.5476 7.13699C8.5476 9.22752 10.254 10.9339 12.3445 10.9339C14.435 10.9339 16.1414 9.22752 16.1414 7.13699C16.1414 5.04646 14.435 3.34008 12.3445 3.34008Z" fill="#8FABC9"/>
<path d="M20.0184 21.2078C19.6521 21.2078 19.3484 20.9041 19.3484 20.5378C19.3484 17.4556 16.2037 14.9541 12.3443 14.9541C8.48481 14.9541 5.34008 17.4556 5.34008 20.5378C5.34008 20.9041 5.03633 21.2078 4.67004 21.2078C4.30375 21.2078 4 20.9041 4 20.5378C4 16.723 7.74329 13.614 12.3443 13.614C16.9453 13.614 20.6885 16.723 20.6885 20.5378C20.6885 20.9041 20.3847 21.2078 20.0184 21.2078Z" fill="#8FABC9"/>
</svg>
