<svg width="32" height="32" viewBox="0 0 32 32" fill="none" xmlns="http://www.w3.org/2000/svg">
<path d="M15.6085 16.7841C19.16 16.7839 20.4377 13.2279 20.7725 10.307C21.1845 6.7084 19.483 4 15.6085 4C11.7346 4 10.0323 6.7081 10.4446 10.307C10.7796 13.228 12.0571 16.7845 15.6085 16.7841Z" fill="#8FABC9"/>
<path d="M25.2159 25.2515C25.2159 25.2515 25.2159 25.2515 25.2159 25.2514C25.1771 24.1179 25.0443 22.9793 24.8464 21.8635C24.6069 20.5118 24.3019 18.53 23.1216 17.649C22.439 17.1398 21.5553 16.9725 20.774 16.6655C20.1486 16.42 19.4293 16.5647 18.8877 16.9623C17.9549 17.6471 16.8479 18.0013 15.6083 18.0013C14.3692 18.0013 13.2623 17.6471 12.3296 16.9624C11.788 16.5648 11.0687 16.4198 10.4434 16.6655C9.66212 16.9727 8.77831 17.1398 8.0958 17.649C6.91554 18.53 6.61052 20.5116 6.37094 21.8635C6.17306 22.9793 6.0403 24.118 6.00146 25.2515C5.97149 26.1294 6.40493 26.2524 7.13938 26.5174C8.05915 26.8491 9.00871 27.0953 9.96448 27.2972C11.8107 27.6872 13.7137 27.9868 15.6084 28.0002C17.5032 27.9868 19.4064 27.6871 21.2524 27.2972C22.2083 27.0955 23.1579 26.8493 24.0775 26.5174C24.8126 26.2526 25.246 26.1296 25.2159 25.2515C25.2159 25.2515 25.2159 25.2515 25.2159 25.2515Z" fill="#8FABC9"/>
</svg>
